<?xml version="1.0" standalone="no"?>
<!DOCTYPE svg PUBLIC "-//W3C//DTD SVG 20010904//EN"
 "http://www.w3.org/TR/2001/REC-SVG-20010904/DTD/svg10.dtd">
<svg version="1.0" xmlns="http://www.w3.org/2000/svg"
 width="512.000000pt" height="512.000000pt" viewBox="0 0 512.000000 512.000000"
 preserveAspectRatio="xMidYMid meet">
<metadata>
Created by potrace 1.16, written by Peter Selinger 2001-2019
</metadata>
<g transform="translate(0.000000,512.000000) scale(0.100000,-0.100000)"
fill="#000000" stroke="none">
<path d="M2240 5105 c-389 -48 -766 -188 -1091 -404 -504 -335 -871 -825
-1043 -1395 -75 -245 -106 -467 -106 -754 0 -708 276 -1354 790 -1845 380
-365 840 -592 1380 -683 130 -22 503 -30 656 -14 408 41 806 183 1145 409 504
335 871 825 1043 1394 44 144 81 331 97 481 16 167 6 535 -20 681 -98 559
-353 1045 -750 1428 -405 390 -902 628 -1464 702 -144 18 -486 19 -637 0z
m1131 -1068 l809 -489 -2 -1261 -3 -1262 -222 -3 -223 -2 0 1060 0 1060 -1170
0 -1170 0 0 -1060 0 -1060 -225 0 -225 0 -2 1264 -3 1265 -114 -70 c-62 -38
-115 -69 -116 -69 -5 0 -105 170 -105 179 0 5 397 249 883 542 485 293 925
559 977 591 l95 58 3 -128 3 -127 810 -488z m129 -1731 l0 -163 -837 -7 c-461
-4 -886 -4 -945 0 l-108 7 0 163 0 164 945 0 945 0 0 -164z m-262 -396 l262 0
0 -165 0 -165 -945 0 -945 0 0 165 0 164 63 4 c34 3 341 3 682 1 341 -2 738
-4 883 -4z m262 -714 l0 -164 -934 -7 c-514 -4 -939 -4 -945 -1 -12 8 -16 318
-4 329 3 4 429 7 945 7 l938 0 0 -164z"/>
</g>
</svg>
